<svg width="154" height="50" viewBox="0 0 154 50" fill="none" xmlns="http://www.w3.org/2000/svg">
<circle cx="24.5" cy="25.0498" r="24.5" fill="white"/>
<path d="M29.0438 25.2078C29.9878 25.3838 30.7638 25.8558 31.3718 26.6238C31.9798 27.3918 32.2838 28.2718 32.2838 29.2638C32.2838 30.1598 32.0598 30.9518 31.6118 31.6398C31.1798 32.3118 30.5478 32.8398 29.7158 33.2238C28.8838 33.6078 27.8998 33.7998 26.7638 33.7998H19.5398V17.0478H26.4518C27.5878 17.0478 28.5638 17.2318 29.3798 17.5998C30.2118 17.9678 30.8358 18.4798 31.2518 19.1358C31.6838 19.7918 31.8998 20.5358 31.8998 21.3678C31.8998 22.3438 31.6358 23.1598 31.1078 23.8158C30.5958 24.4718 29.9078 24.9358 29.0438 25.2078ZM22.8998 23.9598H25.9718C26.7718 23.9598 27.3878 23.7838 27.8198 23.4318C28.2518 23.0638 28.4678 22.5438 28.4678 21.8718C28.4678 21.1998 28.2518 20.6798 27.8198 20.3118C27.3878 19.9438 26.7718 19.7598 25.9718 19.7598H22.8998V23.9598ZM26.2838 31.0638C27.0998 31.0638 27.7318 30.8718 28.1798 30.4878C28.6438 30.1038 28.8758 29.5598 28.8758 28.8558C28.8758 28.1358 28.6358 27.5758 28.1558 27.1758C27.6758 26.7598 27.0278 26.5518 26.2118 26.5518H22.8998V31.0638H26.2838Z" fill="#9867FF"/>
<path d="M57.016 15.7898V33.5498H53.656V15.7898H57.016ZM59.4717 26.8538C59.4717 25.5098 59.7357 24.3178 60.2637 23.2778C60.8077 22.2378 61.5357 21.4378 62.4477 20.8778C63.3757 20.3178 64.4077 20.0378 65.5437 20.0378C66.5357 20.0378 67.3997 20.2378 68.1357 20.6378C68.8877 21.0378 69.4877 21.5418 69.9357 22.1498V20.2538H73.3197V33.5498H69.9357V31.6058C69.5037 32.2298 68.9037 32.7498 68.1357 33.1658C67.3837 33.5658 66.5117 33.7658 65.5197 33.7658C64.3997 33.7658 63.3757 33.4778 62.4477 32.9018C61.5357 32.3258 60.8077 31.5178 60.2637 30.4778C59.7357 29.4218 59.4717 28.2138 59.4717 26.8538ZM69.9357 26.9018C69.9357 26.0858 69.7757 25.3898 69.4557 24.8138C69.1357 24.2218 68.7037 23.7738 68.1597 23.4698C67.6157 23.1498 67.0317 22.9898 66.4077 22.9898C65.7837 22.9898 65.2077 23.1418 64.6797 23.4458C64.1517 23.7498 63.7197 24.1978 63.3837 24.7898C63.0637 25.3658 62.9037 26.0538 62.9037 26.8538C62.9037 27.6538 63.0637 28.3578 63.3837 28.9658C63.7197 29.5578 64.1517 30.0138 64.6797 30.3338C65.2237 30.6538 65.7997 30.8138 66.4077 30.8138C67.0317 30.8138 67.6157 30.6618 68.1597 30.3578C68.7037 30.0378 69.1357 29.5898 69.4557 29.0138C69.7757 28.4218 69.9357 27.7178 69.9357 26.9018ZM75.7373 26.9018C75.7373 25.5258 76.0173 24.3258 76.5773 23.3018C77.1373 22.2618 77.9133 21.4618 78.9053 20.9018C79.8973 20.3258 81.0333 20.0378 82.3133 20.0378C83.9613 20.0378 85.3213 20.4538 86.3933 21.2858C87.4813 22.1018 88.2093 23.2538 88.5773 24.7418H84.9533C84.7613 24.1658 84.4333 23.7178 83.9693 23.3978C83.5213 23.0618 82.9613 22.8938 82.2893 22.8938C81.3293 22.8938 80.5693 23.2458 80.0093 23.9498C79.4493 24.6378 79.1693 25.6218 79.1693 26.9018C79.1693 28.1658 79.4493 29.1498 80.0093 29.8538C80.5693 30.5418 81.3293 30.8858 82.2893 30.8858C83.6493 30.8858 84.5373 30.2778 84.9533 29.0618H88.5773C88.2093 30.5018 87.4813 31.6458 86.3933 32.4938C85.3053 33.3418 83.9453 33.7658 82.3133 33.7658C81.0333 33.7658 79.8973 33.4858 78.9053 32.9258C77.9133 32.3498 77.1373 31.5498 76.5773 30.5258C76.0173 29.4858 75.7373 28.2778 75.7373 26.9018ZM98.9108 33.5498L94.3988 27.8858V33.5498H91.0388V15.7898H94.3988V25.8938L98.8628 20.2538H103.231L97.3748 26.9258L103.279 33.5498H98.9108ZM113.694 33.5498L109.998 27.0218H108.414V33.5498H105.054V16.7978H111.342C112.638 16.7978 113.742 17.0298 114.654 17.4938C115.566 17.9418 116.246 18.5578 116.694 19.3418C117.158 20.1098 117.39 20.9738 117.39 21.9338C117.39 23.0378 117.07 24.0378 116.43 24.9338C115.79 25.8138 114.838 26.4218 113.574 26.7578L117.582 33.5498H113.694ZM108.414 24.5018H111.222C112.134 24.5018 112.814 24.2858 113.262 23.8538C113.71 23.4058 113.934 22.7898 113.934 22.0058C113.934 21.2378 113.71 20.6458 113.262 20.2298C112.814 19.7978 112.134 19.5818 111.222 19.5818H108.414V24.5018ZM122.133 18.6698C121.541 18.6698 121.045 18.4858 120.645 18.1178C120.261 17.7338 120.069 17.2618 120.069 16.7018C120.069 16.1418 120.261 15.6778 120.645 15.3098C121.045 14.9258 121.541 14.7338 122.133 14.7338C122.725 14.7338 123.213 14.9258 123.597 15.3098C123.997 15.6778 124.197 16.1418 124.197 16.7018C124.197 17.2618 123.997 17.7338 123.597 18.1178C123.213 18.4858 122.725 18.6698 122.133 18.6698ZM123.789 20.2538V33.5498H120.429V20.2538H123.789ZM132.197 33.7658C131.109 33.7658 130.133 33.5738 129.269 33.1898C128.405 32.7898 127.717 32.2538 127.205 31.5818C126.709 30.9098 126.437 30.1658 126.389 29.3498H129.773C129.837 29.8618 130.085 30.2858 130.517 30.6218C130.965 30.9578 131.517 31.1258 132.173 31.1258C132.813 31.1258 133.309 30.9978 133.661 30.7418C134.029 30.4858 134.213 30.1578 134.213 29.7578C134.213 29.3258 133.989 29.0058 133.541 28.7978C133.109 28.5738 132.413 28.3338 131.453 28.0778C130.461 27.8378 129.645 27.5898 129.005 27.3338C128.381 27.0778 127.837 26.6858 127.373 26.1578C126.925 25.6298 126.701 24.9178 126.701 24.0218C126.701 23.2858 126.909 22.6138 127.325 22.0058C127.757 21.3978 128.365 20.9178 129.149 20.5658C129.949 20.2138 130.885 20.0378 131.957 20.0378C133.541 20.0378 134.805 20.4378 135.749 21.2378C136.693 22.0218 137.213 23.0858 137.309 24.4298H134.093C134.045 23.9018 133.821 23.4858 133.421 23.1818C133.037 22.8618 132.517 22.7018 131.861 22.7018C131.253 22.7018 130.781 22.8138 130.445 23.0378C130.125 23.2618 129.965 23.5738 129.965 23.9738C129.965 24.4218 130.189 24.7658 130.637 25.0058C131.085 25.2298 131.781 25.4618 132.725 25.7018C133.685 25.9418 134.477 26.1898 135.101 26.4458C135.725 26.7018 136.261 27.1018 136.709 27.6458C137.173 28.1738 137.413 28.8778 137.429 29.7578C137.429 30.5258 137.213 31.2138 136.781 31.8218C136.365 32.4298 135.757 32.9098 134.957 33.2618C134.173 33.5978 133.253 33.7658 132.197 33.7658ZM152.547 26.6138C152.547 27.0938 152.515 27.5258 152.451 27.9098H142.731C142.811 28.8698 143.147 29.6218 143.739 30.1658C144.331 30.7098 145.059 30.9818 145.923 30.9818C147.171 30.9818 148.059 30.4458 148.587 29.3738H152.211C151.827 30.6538 151.091 31.7098 150.003 32.5418C148.915 33.3578 147.579 33.7658 145.995 33.7658C144.715 33.7658 143.563 33.4858 142.539 32.9258C141.531 32.3498 140.739 31.5418 140.163 30.5018C139.603 29.4618 139.323 28.2618 139.323 26.9018C139.323 25.5258 139.603 24.3178 140.163 23.2778C140.723 22.2378 141.507 21.4378 142.515 20.8778C143.523 20.3178 144.683 20.0378 145.995 20.0378C147.259 20.0378 148.387 20.3098 149.379 20.8538C150.387 21.3978 151.163 22.1738 151.707 23.1818C152.267 24.1738 152.547 25.3178 152.547 26.6138ZM149.067 25.6538C149.051 24.7898 148.739 24.1018 148.131 23.5898C147.523 23.0618 146.779 22.7978 145.899 22.7978C145.067 22.7978 144.363 23.0538 143.787 23.5658C143.227 24.0618 142.883 24.7578 142.755 25.6538H149.067Z" fill="white"/>
</svg>
